<mxfile host="app.diagrams.net" agent="Mozilla/5.0 (X11; Ubuntu; Linux x86_64; rv:129.0) Gecko/20100101 Firefox/129.0" version="24.8.6">
  <diagram id="9D4AMNzL2iCtDQYjqb0A" name="Page-1">
    <mxGraphModel dx="3263" dy="2098" grid="1" gridSize="10" guides="1" tooltips="1" connect="1" arrows="1" fold="1" page="1" pageScale="1" pageWidth="827" pageHeight="1169" math="0" shadow="0">
      <root>
        <mxCell id="0" />
        <mxCell id="1" parent="0" />
        <mxCell id="8mUTSPcGxUb29QRjL6rC-1" value="Case" style="swimlane;fontStyle=3;align=center;verticalAlign=top;childLayout=stackLayout;horizontal=1;startSize=26;horizontalStack=0;resizeParent=1;resizeParentMax=0;resizeLast=0;collapsible=1;marginBottom=0;" vertex="1" parent="1">
          <mxGeometry x="-520" y="-50" width="160" height="112" as="geometry" />
        </mxCell>
        <mxCell id="8mUTSPcGxUb29QRjL6rC-131" value="- id: int" style="text;strokeColor=none;fillColor=none;align=left;verticalAlign=top;spacingLeft=4;spacingRight=4;overflow=hidden;rotatable=0;points=[[0,0.5],[1,0.5]];portConstraint=eastwest;" vertex="1" parent="8mUTSPcGxUb29QRjL6rC-1">
          <mxGeometry y="26" width="160" height="26" as="geometry" />
        </mxCell>
        <mxCell id="8mUTSPcGxUb29QRjL6rC-2" value="- nom: String" style="text;strokeColor=none;fillColor=none;align=left;verticalAlign=top;spacingLeft=4;spacingRight=4;overflow=hidden;rotatable=0;points=[[0,0.5],[1,0.5]];portConstraint=eastwest;" vertex="1" parent="8mUTSPcGxUb29QRjL6rC-1">
          <mxGeometry y="52" width="160" height="26" as="geometry" />
        </mxCell>
        <mxCell id="8mUTSPcGxUb29QRjL6rC-3" value="" style="line;strokeWidth=1;fillColor=none;align=left;verticalAlign=middle;spacingTop=-1;spacingLeft=3;spacingRight=3;rotatable=0;labelPosition=right;points=[];portConstraint=eastwest;strokeColor=inherit;" vertex="1" parent="8mUTSPcGxUb29QRjL6rC-1">
          <mxGeometry y="78" width="160" height="8" as="geometry" />
        </mxCell>
        <mxCell id="8mUTSPcGxUb29QRjL6rC-4" value="+ toString(): void" style="text;strokeColor=none;fillColor=none;align=left;verticalAlign=top;spacingLeft=4;spacingRight=4;overflow=hidden;rotatable=0;points=[[0,0.5],[1,0.5]];portConstraint=eastwest;fontStyle=0" vertex="1" parent="8mUTSPcGxUb29QRjL6rC-1">
          <mxGeometry y="86" width="160" height="26" as="geometry" />
        </mxCell>
        <mxCell id="8mUTSPcGxUb29QRjL6rC-6" value="Constructible" style="swimlane;fontStyle=1;align=center;verticalAlign=top;childLayout=stackLayout;horizontal=1;startSize=26;horizontalStack=0;resizeParent=1;resizeParentMax=0;resizeLast=0;collapsible=1;marginBottom=0;" vertex="1" parent="1">
          <mxGeometry x="-540" y="280" width="200" height="164" as="geometry" />
        </mxCell>
        <mxCell id="8mUTSPcGxUb29QRjL6rC-55" value="- nbMaison: int" style="text;strokeColor=none;fillColor=none;align=left;verticalAlign=top;spacingLeft=4;spacingRight=4;overflow=hidden;rotatable=0;points=[[0,0.5],[1,0.5]];portConstraint=eastwest;" vertex="1" parent="8mUTSPcGxUb29QRjL6rC-6">
          <mxGeometry y="26" width="200" height="26" as="geometry" />
        </mxCell>
        <mxCell id="8mUTSPcGxUb29QRjL6rC-56" value="- nbHotel: int" style="text;strokeColor=none;fillColor=none;align=left;verticalAlign=top;spacingLeft=4;spacingRight=4;overflow=hidden;rotatable=0;points=[[0,0.5],[1,0.5]];portConstraint=eastwest;" vertex="1" parent="8mUTSPcGxUb29QRjL6rC-6">
          <mxGeometry y="52" width="200" height="26" as="geometry" />
        </mxCell>
        <mxCell id="8mUTSPcGxUb29QRjL6rC-123" value="- prixConstruction: int" style="text;strokeColor=none;fillColor=none;align=left;verticalAlign=top;spacingLeft=4;spacingRight=4;overflow=hidden;rotatable=0;points=[[0,0.5],[1,0.5]];portConstraint=eastwest;" vertex="1" parent="8mUTSPcGxUb29QRjL6rC-6">
          <mxGeometry y="78" width="200" height="26" as="geometry" />
        </mxCell>
        <mxCell id="8mUTSPcGxUb29QRjL6rC-8" value="" style="line;strokeWidth=1;fillColor=none;align=left;verticalAlign=middle;spacingTop=-1;spacingLeft=3;spacingRight=3;rotatable=0;labelPosition=right;points=[];portConstraint=eastwest;strokeColor=inherit;" vertex="1" parent="8mUTSPcGxUb29QRjL6rC-6">
          <mxGeometry y="104" width="200" height="8" as="geometry" />
        </mxCell>
        <mxCell id="8mUTSPcGxUb29QRjL6rC-59" value="+ calculerLoyer(): void" style="text;strokeColor=none;fillColor=none;align=left;verticalAlign=top;spacingLeft=4;spacingRight=4;overflow=hidden;rotatable=0;points=[[0,0.5],[1,0.5]];portConstraint=eastwest;fontStyle=0" vertex="1" parent="8mUTSPcGxUb29QRjL6rC-6">
          <mxGeometry y="112" width="200" height="26" as="geometry" />
        </mxCell>
        <mxCell id="8mUTSPcGxUb29QRjL6rC-125" value="+ toString(): void" style="text;strokeColor=none;fillColor=none;align=left;verticalAlign=top;spacingLeft=4;spacingRight=4;overflow=hidden;rotatable=0;points=[[0,0.5],[1,0.5]];portConstraint=eastwest;fontStyle=0" vertex="1" parent="8mUTSPcGxUb29QRjL6rC-6">
          <mxGeometry y="138" width="200" height="26" as="geometry" />
        </mxCell>
        <mxCell id="8mUTSPcGxUb29QRjL6rC-11" value="Gare" style="swimlane;fontStyle=1;align=center;verticalAlign=top;childLayout=stackLayout;horizontal=1;startSize=26;horizontalStack=0;resizeParent=1;resizeParentMax=0;resizeLast=0;collapsible=1;marginBottom=0;" vertex="1" parent="1">
          <mxGeometry x="-780" y="280" width="200" height="86" as="geometry" />
        </mxCell>
        <mxCell id="8mUTSPcGxUb29QRjL6rC-14" value="" style="line;strokeWidth=1;fillColor=none;align=left;verticalAlign=middle;spacingTop=-1;spacingLeft=3;spacingRight=3;rotatable=0;labelPosition=right;points=[];portConstraint=eastwest;strokeColor=inherit;" vertex="1" parent="8mUTSPcGxUb29QRjL6rC-11">
          <mxGeometry y="26" width="200" height="8" as="geometry" />
        </mxCell>
        <mxCell id="8mUTSPcGxUb29QRjL6rC-57" value="+ calculerLoyer(): void" style="text;strokeColor=none;fillColor=none;align=left;verticalAlign=top;spacingLeft=4;spacingRight=4;overflow=hidden;rotatable=0;points=[[0,0.5],[1,0.5]];portConstraint=eastwest;fontStyle=0" vertex="1" parent="8mUTSPcGxUb29QRjL6rC-11">
          <mxGeometry y="34" width="200" height="26" as="geometry" />
        </mxCell>
        <mxCell id="8mUTSPcGxUb29QRjL6rC-127" value="+ toString(): void" style="text;strokeColor=none;fillColor=none;align=left;verticalAlign=top;spacingLeft=4;spacingRight=4;overflow=hidden;rotatable=0;points=[[0,0.5],[1,0.5]];portConstraint=eastwest;fontStyle=0" vertex="1" parent="8mUTSPcGxUb29QRjL6rC-11">
          <mxGeometry y="60" width="200" height="26" as="geometry" />
        </mxCell>
        <mxCell id="8mUTSPcGxUb29QRjL6rC-17" value="Achetable" style="swimlane;fontStyle=3;align=center;verticalAlign=top;childLayout=stackLayout;horizontal=1;startSize=26;horizontalStack=0;resizeParent=1;resizeParentMax=0;resizeLast=0;collapsible=1;marginBottom=0;" vertex="1" parent="1">
          <mxGeometry x="-520" y="80" width="160" height="138" as="geometry" />
        </mxCell>
        <mxCell id="8mUTSPcGxUb29QRjL6rC-34" value="- propriÃ©taire: Joueur" style="text;strokeColor=none;fillColor=none;align=left;verticalAlign=top;spacingLeft=4;spacingRight=4;overflow=hidden;rotatable=0;points=[[0,0.5],[1,0.5]];portConstraint=eastwest;" vertex="1" parent="8mUTSPcGxUb29QRjL6rC-17">
          <mxGeometry y="26" width="160" height="26" as="geometry" />
        </mxCell>
        <mxCell id="8mUTSPcGxUb29QRjL6rC-60" value="- prix: int" style="text;strokeColor=none;fillColor=none;align=left;verticalAlign=top;spacingLeft=4;spacingRight=4;overflow=hidden;rotatable=0;points=[[0,0.5],[1,0.5]];portConstraint=eastwest;" vertex="1" parent="8mUTSPcGxUb29QRjL6rC-17">
          <mxGeometry y="52" width="160" height="26" as="geometry" />
        </mxCell>
        <mxCell id="8mUTSPcGxUb29QRjL6rC-133" value="- loyer: int" style="text;strokeColor=none;fillColor=none;align=left;verticalAlign=top;spacingLeft=4;spacingRight=4;overflow=hidden;rotatable=0;points=[[0,0.5],[1,0.5]];portConstraint=eastwest;" vertex="1" parent="8mUTSPcGxUb29QRjL6rC-17">
          <mxGeometry y="78" width="160" height="26" as="geometry" />
        </mxCell>
        <mxCell id="8mUTSPcGxUb29QRjL6rC-19" value="" style="line;strokeWidth=1;fillColor=none;align=left;verticalAlign=middle;spacingTop=-1;spacingLeft=3;spacingRight=3;rotatable=0;labelPosition=right;points=[];portConstraint=eastwest;strokeColor=inherit;" vertex="1" parent="8mUTSPcGxUb29QRjL6rC-17">
          <mxGeometry y="104" width="160" height="8" as="geometry" />
        </mxCell>
        <mxCell id="8mUTSPcGxUb29QRjL6rC-20" value="+ calculerLoyer(): void" style="text;strokeColor=none;fillColor=none;align=left;verticalAlign=top;spacingLeft=4;spacingRight=4;overflow=hidden;rotatable=0;points=[[0,0.5],[1,0.5]];portConstraint=eastwest;fontStyle=2" vertex="1" parent="8mUTSPcGxUb29QRjL6rC-17">
          <mxGeometry y="112" width="160" height="26" as="geometry" />
        </mxCell>
        <mxCell id="8mUTSPcGxUb29QRjL6rC-22" value="" style="endArrow=classic;html=1;rounded=0;" edge="1" parent="1" source="8mUTSPcGxUb29QRjL6rC-11" target="8mUTSPcGxUb29QRjL6rC-17">
          <mxGeometry width="50" height="50" relative="1" as="geometry">
            <mxPoint x="-320" y="120" as="sourcePoint" />
            <mxPoint x="-270" y="70" as="targetPoint" />
          </mxGeometry>
        </mxCell>
        <mxCell id="8mUTSPcGxUb29QRjL6rC-23" value="" style="endArrow=classic;html=1;rounded=0;" edge="1" parent="1" source="8mUTSPcGxUb29QRjL6rC-6" target="8mUTSPcGxUb29QRjL6rC-17">
          <mxGeometry width="50" height="50" relative="1" as="geometry">
            <mxPoint x="-590" y="252" as="sourcePoint" />
            <mxPoint x="-510" y="199" as="targetPoint" />
          </mxGeometry>
        </mxCell>
        <mxCell id="8mUTSPcGxUb29QRjL6rC-24" value="" style="endArrow=classic;html=1;rounded=0;" edge="1" parent="1" source="8mUTSPcGxUb29QRjL6rC-17" target="8mUTSPcGxUb29QRjL6rC-1">
          <mxGeometry width="50" height="50" relative="1" as="geometry">
            <mxPoint x="-430" y="249" as="sourcePoint" />
            <mxPoint x="-430" y="202" as="targetPoint" />
          </mxGeometry>
        </mxCell>
        <mxCell id="8mUTSPcGxUb29QRjL6rC-25" value="40:40" style="text;html=1;align=center;verticalAlign=middle;resizable=0;points=[];autosize=1;strokeColor=none;fillColor=none;" vertex="1" parent="1">
          <mxGeometry x="-445" y="-100" width="50" height="30" as="geometry" />
        </mxCell>
        <mxCell id="8mUTSPcGxUb29QRjL6rC-26" value="Joueur" style="swimlane;fontStyle=1;align=center;verticalAlign=top;childLayout=stackLayout;horizontal=1;startSize=26;horizontalStack=0;resizeParent=1;resizeParentMax=0;resizeLast=0;collapsible=1;marginBottom=0;" vertex="1" parent="1">
          <mxGeometry x="-1040" y="-50" width="200" height="398" as="geometry" />
        </mxCell>
        <mxCell id="8mUTSPcGxUb29QRjL6rC-46" value="- nom: String" style="text;strokeColor=none;fillColor=none;align=left;verticalAlign=top;spacingLeft=4;spacingRight=4;overflow=hidden;rotatable=0;points=[[0,0.5],[1,0.5]];portConstraint=eastwest;" vertex="1" parent="8mUTSPcGxUb29QRjL6rC-26">
          <mxGeometry y="26" width="200" height="26" as="geometry" />
        </mxCell>
        <mxCell id="8mUTSPcGxUb29QRjL6rC-49" value="- fortune: int" style="text;strokeColor=none;fillColor=none;align=left;verticalAlign=top;spacingLeft=4;spacingRight=4;overflow=hidden;rotatable=0;points=[[0,0.5],[1,0.5]];portConstraint=eastwest;" vertex="1" parent="8mUTSPcGxUb29QRjL6rC-26">
          <mxGeometry y="52" width="200" height="26" as="geometry" />
        </mxCell>
        <mxCell id="8mUTSPcGxUb29QRjL6rC-68" value="- plateau: Plateau" style="text;strokeColor=none;fillColor=none;align=left;verticalAlign=top;spacingLeft=4;spacingRight=4;overflow=hidden;rotatable=0;points=[[0,0.5],[1,0.5]];portConstraint=eastwest;" vertex="1" parent="8mUTSPcGxUb29QRjL6rC-26">
          <mxGeometry y="78" width="200" height="26" as="geometry" />
        </mxCell>
        <mxCell id="8mUTSPcGxUb29QRjL6rC-45" value="- pos: Case" style="text;strokeColor=none;fillColor=none;align=left;verticalAlign=top;spacingLeft=4;spacingRight=4;overflow=hidden;rotatable=0;points=[[0,0.5],[1,0.5]];portConstraint=eastwest;" vertex="1" parent="8mUTSPcGxUb29QRjL6rC-26">
          <mxGeometry y="104" width="200" height="26" as="geometry" />
        </mxCell>
        <mxCell id="8mUTSPcGxUb29QRjL6rC-124" value="- tempsEmprisonnement: int" style="text;strokeColor=none;fillColor=none;align=left;verticalAlign=top;spacingLeft=4;spacingRight=4;overflow=hidden;rotatable=0;points=[[0,0.5],[1,0.5]];portConstraint=eastwest;" vertex="1" parent="8mUTSPcGxUb29QRjL6rC-26">
          <mxGeometry y="130" width="200" height="26" as="geometry" />
        </mxCell>
        <mxCell id="8mUTSPcGxUb29QRjL6rC-28" value="" style="line;strokeWidth=1;fillColor=none;align=left;verticalAlign=middle;spacingTop=-1;spacingLeft=3;spacingRight=3;rotatable=0;labelPosition=right;points=[];portConstraint=eastwest;strokeColor=inherit;" vertex="1" parent="8mUTSPcGxUb29QRjL6rC-26">
          <mxGeometry y="156" width="200" height="8" as="geometry" />
        </mxCell>
        <mxCell id="8mUTSPcGxUb29QRjL6rC-29" value="+ toString(): void" style="text;strokeColor=none;fillColor=none;align=left;verticalAlign=top;spacingLeft=4;spacingRight=4;overflow=hidden;rotatable=0;points=[[0,0.5],[1,0.5]];portConstraint=eastwest;" vertex="1" parent="8mUTSPcGxUb29QRjL6rC-26">
          <mxGeometry y="164" width="200" height="26" as="geometry" />
        </mxCell>
        <mxCell id="8mUTSPcGxUb29QRjL6rC-50" value="+ nbGares(): int" style="text;strokeColor=none;fillColor=none;align=left;verticalAlign=top;spacingLeft=4;spacingRight=4;overflow=hidden;rotatable=0;points=[[0,0.5],[1,0.5]];portConstraint=eastwest;" vertex="1" parent="8mUTSPcGxUb29QRjL6rC-26">
          <mxGeometry y="190" width="200" height="26" as="geometry" />
        </mxCell>
        <mxCell id="8mUTSPcGxUb29QRjL6rC-66" value="+ nbCompanie(): int" style="text;strokeColor=none;fillColor=none;align=left;verticalAlign=top;spacingLeft=4;spacingRight=4;overflow=hidden;rotatable=0;points=[[0,0.5],[1,0.5]];portConstraint=eastwest;" vertex="1" parent="8mUTSPcGxUb29QRjL6rC-26">
          <mxGeometry y="216" width="200" height="26" as="geometry" />
        </mxCell>
        <mxCell id="8mUTSPcGxUb29QRjL6rC-51" value="- acheter(Achetable a): void" style="text;strokeColor=none;fillColor=none;align=left;verticalAlign=top;spacingLeft=4;spacingRight=4;overflow=hidden;rotatable=0;points=[[0,0.5],[1,0.5]];portConstraint=eastwest;" vertex="1" parent="8mUTSPcGxUb29QRjL6rC-26">
          <mxGeometry y="242" width="200" height="26" as="geometry" />
        </mxCell>
        <mxCell id="8mUTSPcGxUb29QRjL6rC-71" value="+ payer(int somme, Joueur j): void" style="text;strokeColor=none;fillColor=none;align=left;verticalAlign=top;spacingLeft=4;spacingRight=4;overflow=hidden;rotatable=0;points=[[0,0.5],[1,0.5]];portConstraint=eastwest;" vertex="1" parent="8mUTSPcGxUb29QRjL6rC-26">
          <mxGeometry y="268" width="200" height="26" as="geometry" />
        </mxCell>
        <mxCell id="8mUTSPcGxUb29QRjL6rC-122" value="+ construire(Constructible c): void" style="text;strokeColor=none;fillColor=none;align=left;verticalAlign=top;spacingLeft=4;spacingRight=4;overflow=hidden;rotatable=0;points=[[0,0.5],[1,0.5]];portConstraint=eastwest;" vertex="1" parent="8mUTSPcGxUb29QRjL6rC-26">
          <mxGeometry y="294" width="200" height="26" as="geometry" />
        </mxCell>
        <mxCell id="8mUTSPcGxUb29QRjL6rC-52" value="- hypotequer(Achetable a): void" style="text;strokeColor=none;fillColor=none;align=left;verticalAlign=top;spacingLeft=4;spacingRight=4;overflow=hidden;rotatable=0;points=[[0,0.5],[1,0.5]];portConstraint=eastwest;" vertex="1" parent="8mUTSPcGxUb29QRjL6rC-26">
          <mxGeometry y="320" width="200" height="26" as="geometry" />
        </mxCell>
        <mxCell id="8mUTSPcGxUb29QRjL6rC-69" value="- avancer(int d): void" style="text;strokeColor=none;fillColor=none;align=left;verticalAlign=top;spacingLeft=4;spacingRight=4;overflow=hidden;rotatable=0;points=[[0,0.5],[1,0.5]];portConstraint=eastwest;" vertex="1" parent="8mUTSPcGxUb29QRjL6rC-26">
          <mxGeometry y="346" width="200" height="26" as="geometry" />
        </mxCell>
        <mxCell id="8mUTSPcGxUb29QRjL6rC-70" value="- tourDeJeu(): void" style="text;strokeColor=none;fillColor=none;align=left;verticalAlign=top;spacingLeft=4;spacingRight=4;overflow=hidden;rotatable=0;points=[[0,0.5],[1,0.5]];portConstraint=eastwest;" vertex="1" parent="8mUTSPcGxUb29QRjL6rC-26">
          <mxGeometry y="372" width="200" height="26" as="geometry" />
        </mxCell>
        <mxCell id="8mUTSPcGxUb29QRjL6rC-30" value="Plateau" style="swimlane;fontStyle=1;align=center;verticalAlign=top;childLayout=stackLayout;horizontal=1;startSize=26;horizontalStack=0;resizeParent=1;resizeParentMax=0;resizeLast=0;collapsible=1;marginBottom=0;" vertex="1" parent="1">
          <mxGeometry x="-560" y="-400" width="240" height="294" as="geometry" />
        </mxCell>
        <mxCell id="8mUTSPcGxUb29QRjL6rC-31" value="- id_plateau: String" style="text;strokeColor=none;fillColor=none;align=left;verticalAlign=top;spacingLeft=4;spacingRight=4;overflow=hidden;rotatable=0;points=[[0,0.5],[1,0.5]];portConstraint=eastwest;" vertex="1" parent="8mUTSPcGxUb29QRjL6rC-30">
          <mxGeometry y="26" width="240" height="26" as="geometry" />
        </mxCell>
        <mxCell id="8mUTSPcGxUb29QRjL6rC-38" value="- plateau: ArrayList&lt;Case&gt;" style="text;strokeColor=none;fillColor=none;align=left;verticalAlign=top;spacingLeft=4;spacingRight=4;overflow=hidden;rotatable=0;points=[[0,0.5],[1,0.5]];portConstraint=eastwest;" vertex="1" parent="8mUTSPcGxUb29QRjL6rC-30">
          <mxGeometry y="52" width="240" height="26" as="geometry" />
        </mxCell>
        <mxCell id="8mUTSPcGxUb29QRjL6rC-39" value="- joueurs: LinkedList&lt;Joueur&gt;" style="text;strokeColor=none;fillColor=none;align=left;verticalAlign=top;spacingLeft=4;spacingRight=4;overflow=hidden;rotatable=0;points=[[0,0.5],[1,0.5]];portConstraint=eastwest;" vertex="1" parent="8mUTSPcGxUb29QRjL6rC-30">
          <mxGeometry y="78" width="240" height="26" as="geometry" />
        </mxCell>
        <mxCell id="8mUTSPcGxUb29QRjL6rC-32" value="" style="line;strokeWidth=1;fillColor=none;align=left;verticalAlign=middle;spacingTop=-1;spacingLeft=3;spacingRight=3;rotatable=0;labelPosition=right;points=[];portConstraint=eastwest;strokeColor=inherit;" vertex="1" parent="8mUTSPcGxUb29QRjL6rC-30">
          <mxGeometry y="104" width="240" height="8" as="geometry" />
        </mxCell>
        <mxCell id="8mUTSPcGxUb29QRjL6rC-44" value="+ initPlateau(): void" style="text;strokeColor=none;fillColor=none;align=left;verticalAlign=top;spacingLeft=4;spacingRight=4;overflow=hidden;rotatable=0;points=[[0,0.5],[1,0.5]];portConstraint=eastwest;" vertex="1" parent="8mUTSPcGxUb29QRjL6rC-30">
          <mxGeometry y="112" width="240" height="26" as="geometry" />
        </mxCell>
        <mxCell id="8mUTSPcGxUb29QRjL6rC-73" value="+ tourDeJeu(): void" style="text;strokeColor=none;fillColor=none;align=left;verticalAlign=top;spacingLeft=4;spacingRight=4;overflow=hidden;rotatable=0;points=[[0,0.5],[1,0.5]];portConstraint=eastwest;" vertex="1" parent="8mUTSPcGxUb29QRjL6rC-30">
          <mxGeometry y="138" width="240" height="26" as="geometry" />
        </mxCell>
        <mxCell id="8mUTSPcGxUb29QRjL6rC-40" value="+ affiche(): void" style="text;strokeColor=none;fillColor=none;align=left;verticalAlign=top;spacingLeft=4;spacingRight=4;overflow=hidden;rotatable=0;points=[[0,0.5],[1,0.5]];portConstraint=eastwest;" vertex="1" parent="8mUTSPcGxUb29QRjL6rC-30">
          <mxGeometry y="164" width="240" height="26" as="geometry" />
        </mxCell>
        <mxCell id="8mUTSPcGxUb29QRjL6rC-41" value="+ nombreGare(Joueur j): void" style="text;strokeColor=none;fillColor=none;align=left;verticalAlign=top;spacingLeft=4;spacingRight=4;overflow=hidden;rotatable=0;points=[[0,0.5],[1,0.5]];portConstraint=eastwest;" vertex="1" parent="8mUTSPcGxUb29QRjL6rC-30">
          <mxGeometry y="190" width="240" height="26" as="geometry" />
        </mxCell>
        <mxCell id="8mUTSPcGxUb29QRjL6rC-43" value="+ avance(Case c, Int i): Case" style="text;strokeColor=none;fillColor=none;align=left;verticalAlign=top;spacingLeft=4;spacingRight=4;overflow=hidden;rotatable=0;points=[[0,0.5],[1,0.5]];portConstraint=eastwest;" vertex="1" parent="8mUTSPcGxUb29QRjL6rC-30">
          <mxGeometry y="216" width="240" height="26" as="geometry" />
        </mxCell>
        <mxCell id="8mUTSPcGxUb29QRjL6rC-74" value="+ elimination(joueur): void" style="text;strokeColor=none;fillColor=none;align=left;verticalAlign=top;spacingLeft=4;spacingRight=4;overflow=hidden;rotatable=0;points=[[0,0.5],[1,0.5]];portConstraint=eastwest;" vertex="1" parent="8mUTSPcGxUb29QRjL6rC-30">
          <mxGeometry y="242" width="240" height="26" as="geometry" />
        </mxCell>
        <mxCell id="8mUTSPcGxUb29QRjL6rC-72" value="+ finPartie(): boolean" style="text;strokeColor=none;fillColor=none;align=left;verticalAlign=top;spacingLeft=4;spacingRight=4;overflow=hidden;rotatable=0;points=[[0,0.5],[1,0.5]];portConstraint=eastwest;" vertex="1" parent="8mUTSPcGxUb29QRjL6rC-30">
          <mxGeometry y="268" width="240" height="26" as="geometry" />
        </mxCell>
        <mxCell id="8mUTSPcGxUb29QRjL6rC-35" value="" style="endArrow=diamond;html=1;rounded=0;endFill=1;" edge="1" parent="1" source="8mUTSPcGxUb29QRjL6rC-1" target="8mUTSPcGxUb29QRjL6rC-30">
          <mxGeometry width="50" height="50" relative="1" as="geometry">
            <mxPoint x="-430" y="90" as="sourcePoint" />
            <mxPoint x="-430" y="46" as="targetPoint" />
          </mxGeometry>
        </mxCell>
        <mxCell id="8mUTSPcGxUb29QRjL6rC-36" value="" style="endArrow=none;html=1;rounded=0;endFill=0;startArrow=diamond;startFill=0;" edge="1" parent="1" source="8mUTSPcGxUb29QRjL6rC-17" target="8mUTSPcGxUb29QRjL6rC-26">
          <mxGeometry width="50" height="50" relative="1" as="geometry">
            <mxPoint x="-430" y="-40" as="sourcePoint" />
            <mxPoint x="-430" y="-104" as="targetPoint" />
          </mxGeometry>
        </mxCell>
        <mxCell id="8mUTSPcGxUb29QRjL6rC-47" value="" style="endArrow=diamond;html=1;rounded=0;endFill=1;" edge="1" parent="1" source="8mUTSPcGxUb29QRjL6rC-26" target="8mUTSPcGxUb29QRjL6rC-30">
          <mxGeometry width="50" height="50" relative="1" as="geometry">
            <mxPoint x="-430" y="-40" as="sourcePoint" />
            <mxPoint x="-430" y="-134" as="targetPoint" />
          </mxGeometry>
        </mxCell>
        <mxCell id="8mUTSPcGxUb29QRjL6rC-48" value="2:4" style="text;html=1;align=center;verticalAlign=middle;resizable=0;points=[];autosize=1;strokeColor=none;fillColor=none;" vertex="1" parent="1">
          <mxGeometry x="-650" y="-100" width="40" height="30" as="geometry" />
        </mxCell>
        <mxCell id="8mUTSPcGxUb29QRjL6rC-53" value="0:1" style="text;html=1;align=center;verticalAlign=middle;resizable=0;points=[];autosize=1;strokeColor=none;fillColor=none;" vertex="1" parent="1">
          <mxGeometry x="-600" y="130" width="40" height="30" as="geometry" />
        </mxCell>
        <mxCell id="8mUTSPcGxUb29QRjL6rC-61" value="Companie" style="swimlane;fontStyle=1;align=center;verticalAlign=top;childLayout=stackLayout;horizontal=1;startSize=26;horizontalStack=0;resizeParent=1;resizeParentMax=0;resizeLast=0;collapsible=1;marginBottom=0;" vertex="1" parent="1">
          <mxGeometry x="-300" y="280" width="200" height="86" as="geometry" />
        </mxCell>
        <mxCell id="8mUTSPcGxUb29QRjL6rC-64" value="" style="line;strokeWidth=1;fillColor=none;align=left;verticalAlign=middle;spacingTop=-1;spacingLeft=3;spacingRight=3;rotatable=0;labelPosition=right;points=[];portConstraint=eastwest;strokeColor=inherit;" vertex="1" parent="8mUTSPcGxUb29QRjL6rC-61">
          <mxGeometry y="26" width="200" height="8" as="geometry" />
        </mxCell>
        <mxCell id="8mUTSPcGxUb29QRjL6rC-65" value="+ calculerLoyer(): void" style="text;strokeColor=none;fillColor=none;align=left;verticalAlign=top;spacingLeft=4;spacingRight=4;overflow=hidden;rotatable=0;points=[[0,0.5],[1,0.5]];portConstraint=eastwest;fontStyle=0" vertex="1" parent="8mUTSPcGxUb29QRjL6rC-61">
          <mxGeometry y="34" width="200" height="26" as="geometry" />
        </mxCell>
        <mxCell id="8mUTSPcGxUb29QRjL6rC-126" value="+ toString(): void" style="text;strokeColor=none;fillColor=none;align=left;verticalAlign=top;spacingLeft=4;spacingRight=4;overflow=hidden;rotatable=0;points=[[0,0.5],[1,0.5]];portConstraint=eastwest;fontStyle=0" vertex="1" parent="8mUTSPcGxUb29QRjL6rC-61">
          <mxGeometry y="60" width="200" height="26" as="geometry" />
        </mxCell>
        <mxCell id="8mUTSPcGxUb29QRjL6rC-67" value="" style="endArrow=classic;html=1;rounded=0;" edge="1" parent="1" source="8mUTSPcGxUb29QRjL6rC-61" target="8mUTSPcGxUb29QRjL6rC-17">
          <mxGeometry width="50" height="50" relative="1" as="geometry">
            <mxPoint x="-333" y="330" as="sourcePoint" />
            <mxPoint x="-395" y="228" as="targetPoint" />
          </mxGeometry>
        </mxCell>
        <mxCell id="8mUTSPcGxUb29QRjL6rC-75" value="Carte" style="swimlane;fontStyle=1;align=center;verticalAlign=top;childLayout=stackLayout;horizontal=1;startSize=26;horizontalStack=0;resizeParent=1;resizeParentMax=0;resizeLast=0;collapsible=1;marginBottom=0;" vertex="1" parent="1">
          <mxGeometry x="-50" y="280" width="210" height="138" as="geometry" />
        </mxCell>
        <mxCell id="8mUTSPcGxUb29QRjL6rC-78" value="" style="line;strokeWidth=1;fillColor=none;align=left;verticalAlign=middle;spacingTop=-1;spacingLeft=3;spacingRight=3;rotatable=0;labelPosition=right;points=[];portConstraint=eastwest;strokeColor=inherit;" vertex="1" parent="8mUTSPcGxUb29QRjL6rC-75">
          <mxGeometry y="26" width="210" height="8" as="geometry" />
        </mxCell>
        <mxCell id="8mUTSPcGxUb29QRjL6rC-79" value="+ appliquerEffet(): void" style="text;strokeColor=none;fillColor=none;align=left;verticalAlign=top;spacingLeft=4;spacingRight=4;overflow=hidden;rotatable=0;points=[[0,0.5],[1,0.5]];portConstraint=eastwest;fontStyle=0" vertex="1" parent="8mUTSPcGxUb29QRjL6rC-75">
          <mxGeometry y="34" width="210" height="26" as="geometry" />
        </mxCell>
        <mxCell id="8mUTSPcGxUb29QRjL6rC-119" value="- deplacerJoueur(Joueur j): void" style="text;strokeColor=none;fillColor=none;align=left;verticalAlign=top;spacingLeft=4;spacingRight=4;overflow=hidden;rotatable=0;points=[[0,0.5],[1,0.5]];portConstraint=eastwest;fontStyle=0" vertex="1" parent="8mUTSPcGxUb29QRjL6rC-75">
          <mxGeometry y="60" width="210" height="26" as="geometry" />
        </mxCell>
        <mxCell id="8mUTSPcGxUb29QRjL6rC-121" value="- payerJoueur(Joueur j): void" style="text;strokeColor=none;fillColor=none;align=left;verticalAlign=top;spacingLeft=4;spacingRight=4;overflow=hidden;rotatable=0;points=[[0,0.5],[1,0.5]];portConstraint=eastwest;fontStyle=0" vertex="1" parent="8mUTSPcGxUb29QRjL6rC-75">
          <mxGeometry y="86" width="210" height="26" as="geometry" />
        </mxCell>
        <mxCell id="8mUTSPcGxUb29QRjL6rC-120" value="- emprisonner(Joueur j): void" style="text;strokeColor=none;fillColor=none;align=left;verticalAlign=top;spacingLeft=4;spacingRight=4;overflow=hidden;rotatable=0;points=[[0,0.5],[1,0.5]];portConstraint=eastwest;fontStyle=0" vertex="1" parent="8mUTSPcGxUb29QRjL6rC-75">
          <mxGeometry y="112" width="210" height="26" as="geometry" />
        </mxCell>
        <mxCell id="8mUTSPcGxUb29QRjL6rC-80" value="SpÃ©ciale" style="swimlane;fontStyle=3;align=center;verticalAlign=top;childLayout=stackLayout;horizontal=1;startSize=26;horizontalStack=0;resizeParent=1;resizeParentMax=0;resizeLast=0;collapsible=1;marginBottom=0;" vertex="1" parent="1">
          <mxGeometry x="280" y="80" width="200" height="60" as="geometry" />
        </mxCell>
        <mxCell id="8mUTSPcGxUb29QRjL6rC-83" value="" style="line;strokeWidth=1;fillColor=none;align=left;verticalAlign=middle;spacingTop=-1;spacingLeft=3;spacingRight=3;rotatable=0;labelPosition=right;points=[];portConstraint=eastwest;strokeColor=inherit;" vertex="1" parent="8mUTSPcGxUb29QRjL6rC-80">
          <mxGeometry y="26" width="200" height="8" as="geometry" />
        </mxCell>
        <mxCell id="8mUTSPcGxUb29QRjL6rC-84" value="+ appliquerEffet(): void" style="text;strokeColor=none;fillColor=none;align=left;verticalAlign=top;spacingLeft=4;spacingRight=4;overflow=hidden;rotatable=0;points=[[0,0.5],[1,0.5]];portConstraint=eastwest;fontStyle=2" vertex="1" parent="8mUTSPcGxUb29QRjL6rC-80">
          <mxGeometry y="34" width="200" height="26" as="geometry" />
        </mxCell>
        <mxCell id="8mUTSPcGxUb29QRjL6rC-85" value="Policier" style="swimlane;fontStyle=1;align=center;verticalAlign=top;childLayout=stackLayout;horizontal=1;startSize=26;horizontalStack=0;resizeParent=1;resizeParentMax=0;resizeLast=0;collapsible=1;marginBottom=0;" vertex="1" parent="1">
          <mxGeometry x="600" y="275" width="160" height="60" as="geometry" />
        </mxCell>
        <mxCell id="8mUTSPcGxUb29QRjL6rC-88" value="" style="line;strokeWidth=1;fillColor=none;align=left;verticalAlign=middle;spacingTop=-1;spacingLeft=3;spacingRight=3;rotatable=0;labelPosition=right;points=[];portConstraint=eastwest;strokeColor=inherit;" vertex="1" parent="8mUTSPcGxUb29QRjL6rC-85">
          <mxGeometry y="26" width="160" height="8" as="geometry" />
        </mxCell>
        <mxCell id="8mUTSPcGxUb29QRjL6rC-89" value="+ appliquerEffet(): void" style="text;strokeColor=none;fillColor=none;align=left;verticalAlign=top;spacingLeft=4;spacingRight=4;overflow=hidden;rotatable=0;points=[[0,0.5],[1,0.5]];portConstraint=eastwest;fontStyle=0" vertex="1" parent="8mUTSPcGxUb29QRjL6rC-85">
          <mxGeometry y="34" width="160" height="26" as="geometry" />
        </mxCell>
        <mxCell id="8mUTSPcGxUb29QRjL6rC-90" value="TaxeGain" style="swimlane;fontStyle=1;align=center;verticalAlign=top;childLayout=stackLayout;horizontal=1;startSize=26;horizontalStack=0;resizeParent=1;resizeParentMax=0;resizeLast=0;collapsible=1;marginBottom=0;" vertex="1" parent="1">
          <mxGeometry x="200" y="280" width="160" height="60" as="geometry" />
        </mxCell>
        <mxCell id="8mUTSPcGxUb29QRjL6rC-93" value="" style="line;strokeWidth=1;fillColor=none;align=left;verticalAlign=middle;spacingTop=-1;spacingLeft=3;spacingRight=3;rotatable=0;labelPosition=right;points=[];portConstraint=eastwest;strokeColor=inherit;" vertex="1" parent="8mUTSPcGxUb29QRjL6rC-90">
          <mxGeometry y="26" width="160" height="8" as="geometry" />
        </mxCell>
        <mxCell id="8mUTSPcGxUb29QRjL6rC-94" value="+ appliquerEffet(): void" style="text;strokeColor=none;fillColor=none;align=left;verticalAlign=top;spacingLeft=4;spacingRight=4;overflow=hidden;rotatable=0;points=[[0,0.5],[1,0.5]];portConstraint=eastwest;fontStyle=0" vertex="1" parent="8mUTSPcGxUb29QRjL6rC-90">
          <mxGeometry y="34" width="160" height="26" as="geometry" />
        </mxCell>
        <mxCell id="8mUTSPcGxUb29QRjL6rC-95" value="Prison" style="swimlane;fontStyle=1;align=center;verticalAlign=top;childLayout=stackLayout;horizontal=1;startSize=26;horizontalStack=0;resizeParent=1;resizeParentMax=0;resizeLast=0;collapsible=1;marginBottom=0;" vertex="1" parent="1">
          <mxGeometry x="400" y="280" width="160" height="60" as="geometry" />
        </mxCell>
        <mxCell id="8mUTSPcGxUb29QRjL6rC-96" value="" style="line;strokeWidth=1;fillColor=none;align=left;verticalAlign=middle;spacingTop=-1;spacingLeft=3;spacingRight=3;rotatable=0;labelPosition=right;points=[];portConstraint=eastwest;strokeColor=inherit;" vertex="1" parent="8mUTSPcGxUb29QRjL6rC-95">
          <mxGeometry y="26" width="160" height="8" as="geometry" />
        </mxCell>
        <mxCell id="8mUTSPcGxUb29QRjL6rC-97" value="+ appliquerEffet(): void" style="text;strokeColor=none;fillColor=none;align=left;verticalAlign=top;spacingLeft=4;spacingRight=4;overflow=hidden;rotatable=0;points=[[0,0.5],[1,0.5]];portConstraint=eastwest;fontStyle=0" vertex="1" parent="8mUTSPcGxUb29QRjL6rC-95">
          <mxGeometry y="34" width="160" height="26" as="geometry" />
        </mxCell>
        <mxCell id="8mUTSPcGxUb29QRjL6rC-113" value="" style="endArrow=classic;html=1;rounded=0;" edge="1" parent="1" source="8mUTSPcGxUb29QRjL6rC-80" target="8mUTSPcGxUb29QRjL6rC-1">
          <mxGeometry width="50" height="50" relative="1" as="geometry">
            <mxPoint x="-239" y="290" as="sourcePoint" />
            <mxPoint x="-350" y="221" as="targetPoint" />
          </mxGeometry>
        </mxCell>
        <mxCell id="8mUTSPcGxUb29QRjL6rC-114" value="" style="endArrow=classic;html=1;rounded=0;" edge="1" parent="1" source="8mUTSPcGxUb29QRjL6rC-75" target="8mUTSPcGxUb29QRjL6rC-80">
          <mxGeometry width="50" height="50" relative="1" as="geometry">
            <mxPoint x="160" y="194" as="sourcePoint" />
            <mxPoint x="-350" y="29" as="targetPoint" />
          </mxGeometry>
        </mxCell>
        <mxCell id="8mUTSPcGxUb29QRjL6rC-116" value="" style="endArrow=classic;html=1;rounded=0;" edge="1" parent="1" source="8mUTSPcGxUb29QRjL6rC-95" target="8mUTSPcGxUb29QRjL6rC-80">
          <mxGeometry width="50" height="50" relative="1" as="geometry">
            <mxPoint x="240" y="316" as="sourcePoint" />
            <mxPoint x="240" y="250" as="targetPoint" />
          </mxGeometry>
        </mxCell>
        <mxCell id="8mUTSPcGxUb29QRjL6rC-117" value="" style="endArrow=classic;html=1;rounded=0;" edge="1" parent="1" source="8mUTSPcGxUb29QRjL6rC-90" target="8mUTSPcGxUb29QRjL6rC-80">
          <mxGeometry width="50" height="50" relative="1" as="geometry">
            <mxPoint x="392" y="316" as="sourcePoint" />
            <mxPoint x="288" y="250" as="targetPoint" />
          </mxGeometry>
        </mxCell>
        <mxCell id="8mUTSPcGxUb29QRjL6rC-118" value="" style="endArrow=classic;html=1;rounded=0;" edge="1" parent="1" source="8mUTSPcGxUb29QRjL6rC-85" target="8mUTSPcGxUb29QRjL6rC-80">
          <mxGeometry width="50" height="50" relative="1" as="geometry">
            <mxPoint x="402" y="326" as="sourcePoint" />
            <mxPoint x="290" y="210" as="targetPoint" />
          </mxGeometry>
        </mxCell>
      </root>
    </mxGraphModel>
  </diagram>
</mxfile>
